{
  "accessors": [
    {
      "bufferView": 2,
      "componentType": 5126,
      "count": 4458,
      "max": [
        3.7593801021575928,
        4.4928598403930664,
        1.4089100360870361
      ],
      "min": [
        -3.7593801021575928,
        -4.730830192565918,
        -2.2090399265289307
      ],
      "type": "VEC3"
    },
    {
      "bufferView": 2,
      "byteOffset": 53496,
      "componentType": 5126,
      "count": 4458,
      "max": [
        0.99984830617904663,
        0.99857062101364136,
        0.99972879886627197
      ],
      "min": [
        -0.99984830617904663,
        -0.99732530117034912,
        -0.99987214803695679
      ],
      "type": "VEC3"
    },
    {
      "bufferView": 1,
      "componentType": 5126,
      "count": 4458,
      "max": [
        0.86939001083374023,
        0.94028997421264648
      ],
      "min": [
        0.1443600058555603,
        0.026599999517202377
      ],
      "type": "VEC2"
    },
    {
      "bufferView": 0,
      "componentType": 5125,
      "count": 26040,
      "max": [
        4457
      ],
      "min": [
        0
      ],
      "type": "SCALAR"
    },
    {
      "bufferView": 2,
      "byteOffset": 106992,
      "componentType": 5126,
      "count": 1076,
      "max": [
        3.7855100631713867,
        4.5001101493835449,
        1.4991400241851807
      ],
      "min": [
        -3.7855100631713867,
        -4.7445101737976074,
        -2.2138299942016602
      ],
      "type": "VEC3"
    },
    {
      "bufferView": 2,
      "byteOffset": 119904,
      "componentType": 5126,
      "count": 1076,
      "max": [
        0.99937552213668823,
        0.99705255031585693,
        0.99969148635864258
      ],
      "min": [
        -0.99937552213668823,
        -0.99049866199493408,
        -0.99967491626739502
      ],
      "type": "VEC3"
    },
    {
      "bufferView": 1,
      "byteOffset": 35664,
      "componentType": 5126,
      "count": 1076,
      "max": [
        0.87055999040603638,
        0.94040000438690186
      ],
      "min": [
        0.14318999648094177,
        0.026019999757409096
      ],
      "type": "VEC2"
    },
    {
      "bufferView": 0,
      "byteOffset": 104160,
      "componentType": 5125,
      "count": 6480,
      "max": [
        1075
      ],
      "min": [
        0
      ],
      "type": "SCALAR"
    },
    {
      "bufferView": 2,
      "byteOffset": 132816,
      "componentType": 5126,
      "count": 1076,
      "max": [
        3.7855100631713867,
        4.5001101493835449,
        1.4991400241851807
      ],
      "min": [
        -3.7855100631713867,
        -4.7445101737976074,
        -2.2138299942016602
      ],
      "type": "VEC3"
    },
    {
      "bufferView": 2,
      "byteOffset": 145728,
      "componentType": 5126,
      "count": 1076,
      "max": [
        0.9993777871131897,
        0.99689191579818726,
        0.99969148635864258
      ],
      "min": [
        -0.9993777871131897,
        -0.99049866199493408,
        -0.99967384338378906
      ],
      "type": "VEC3"
    },
    {
      "bufferView": 1,
      "byteOffset": 44272,
      "componentType": 5126,
      "count": 1076,
      "max": [
        0.87055999040603638,
        0.94040000438690186
      ],
      "min": [
        0.14318999648094177,
        0.026019999757409096
      ],
      "type": "VEC2"
    },
    {
      "bufferView": 0,
      "byteOffset": 130080,
      "componentType": 5125,
      "count": 6480,
      "max": [
        1075
      ],
      "min": [
        0
      ],
      "type": "SCALAR"
    }
  ],
  "asset": {
    "extras": {
      "author": "chuckevil1984 (https://sketchfab.com/chuckevil1984)",
      "license": "CC-BY-4.0 (http://creativecommons.org/licenses/by/4.0/)",
      "source": "https://sketchfab.com/3d-models/vendetta-mask-set-c00ce3a188bb4e31838534ce4fee0038",
      "title": "Vendetta-mask-set"
    },
    "generator": "Sketchfab-8.76.0",
    "version": "2.0"
  },
  "bufferViews": [
    {
      "buffer": 0,
      "byteLength": 156000,
      "byteOffset": 0,
      "name": "floatBufferViews",
      "target": 34963
    },
    {
      "buffer": 0,
      "byteLength": 52880,
      "byteOffset": 156000,
      "byteStride": 8,
      "name": "floatBufferViews",
      "target": 34962
    },
    {
      "buffer": 0,
      "byteLength": 158640,
      "byteOffset": 208880,
      "byteStride": 12,
      "name": "floatBufferViews",
      "target": 34962
    }
  ],
  "buffers": [
    {
      "byteLength": 367520,
      "uri": "scene.bin"
    }
  ],
  "extensionsUsed": [
    "KHR_materials_unlit"
  ],
  "images": [
    {
      "uri": "textures/Material_baseColor.jpeg"
    }
  ],
  "materials": [
    {
      "doubleSided": true,
      "emissiveFactor": [
        0,
        0,
        0
      ],
      "extensions": {
        "KHR_materials_unlit": {}
      },
      "name": "Material",
      "pbrMetallicRoughness": {
        "baseColorFactor": [
          1,
          1,
          1,
          1
        ],
        "baseColorTexture": {
          "index": 0,
          "texCoord": 0
        },
        "metallicFactor": 0,
        "roughnessFactor": 1
      }
    }
  ],
  "meshes": [
    {
      "name": "Plane.003_0",
      "primitives": [
        {
          "attributes": {
            "NORMAL": 1,
            "POSITION": 0,
            "TEXCOORD_0": 2
          },
          "indices": 3,
          "material": 0,
          "mode": 4
        }
      ]
    },
    {
      "name": "Plane.005_0",
      "primitives": [
        {
          "attributes": {
            "NORMAL": 5,
            "POSITION": 4,
            "TEXCOORD_0": 6
          },
          "indices": 7,
          "material": 0,
          "mode": 4
        }
      ]
    },
    {
      "name": "Plane.006_0",
      "primitives": [
        {
          "attributes": {
            "NORMAL": 9,
            "POSITION": 8,
            "TEXCOORD_0": 10
          },
          "indices": 11,
          "material": 0,
          "mode": 4
        }
      ]
    }
  ],
  "nodes": [
    {
      "children": [
        1
      ],
      "name": "RootNode (gltf orientation matrix)",
      "rotation": [
        -0.70710678118654746,
        -0,
        -0,
        0.70710678118654757
      ]
    },
    {
      "children": [
        2
      ],
      "name": "RootNode (model correction matrix)"
    },
    {
      "children": [
        3,
        5,
        7
      ],
      "name": "Root"
    },
    {
      "children": [
        4
      ],
      "matrix": [
        1.4086099999999999,
        0.013940000000000003,
        -0.11712000000000003,
        0,
        0.11795000000000001,
        -0.16643000000000005,
        1.3987400000000001,
        0,
        0,
        -1.4036399999999998,
        -0.16701000000000005,
        0,
        -0.18025000000000002,
        0.014970000000000002,
        0,
        1
      ],
      "name": "Plane.003"
    },
    {
      "mesh": 0,
      "name": "Plane.003_0"
    },
    {
      "children": [
        6
      ],
      "matrix": [
        0.48777000000000004,
        0.18110000000000001,
        0.27721000000000001,
        0,
        -0.21727000000000002,
        -0.19740000000000005,
        0.51127,
        0,
        0.24987000000000001,
        -0.52517000000000003,
        -0.096580000000000027,
        0,
        -5.2274599999999998,
        -1.24041,
        -4.2085499999999998,
        1
      ],
      "name": "Plane.005"
    },
    {
      "mesh": 1,
      "name": "Plane.005_0"
    },
    {
      "children": [
        8
      ],
      "matrix": [
        0.79277000000000009,
        0.042150000000000014,
        0.13271000000000002,
        0,
        -0.13924000000000003,
        0.23995000000000002,
        0.75559000000000009,
        0,
        -0,
        -0.76715000000000011,
        0.24362,
        0,
        5.8564799999999995,
        -3.0567299999999999,
        -3.3437999999999999,
        1
      ],
      "name": "Plane.006"
    },
    {
      "mesh": 2,
      "name": "Plane.006_0"
    }
  ],
  "samplers": [
    {
      "magFilter": 9729,
      "minFilter": 9987,
      "wrapS": 10497,
      "wrapT": 10497
    }
  ],
  "scene": 0,
  "scenes": [
    {
      "name": "OSG_Scene",
      "nodes": [
        0
      ]
    }
  ],
  "textures": [
    {
      "sampler": 0,
      "source": 0
    }
  ]
}

